<svg class="w-5/6 sm:h-64 mx-auto" xmlns="http://www.w3.org/2000/svg" xmlns:xlink="http://www.w3.org/1999/xlink" viewBox="0 0 421.65 338.11">
    <defs><style>.tech-path-1{mask:url(#mask);filter:url(#luminosity-noclip-2);}.tech-path-2{mix-blend-mode:multiply;fill:url(#tech-grd-4);}.tech-path-3{fill:#0c25ba;opacity:0.43;}.tech-path-4{fill:url(#tech-grd-3);}.tech-path-5{fill:#f0f0fc;}.tech-path-6{fill:url(#tech-grd-93);}.tech-path-7{fill:#ffd33f;}.tech-path-8{fill:url(#tech-grd-365);}.tech-path-9{fill:url(#tech-grd-93-2);}.tech-path-10{fill:url(#tech-grd-365-2);}.tech-path-11{fill:url(#tech-grd-44);}.tech-path-12{fill:url(#tech-grd-365-3);}.tech-path-13{fill:url(#tech-grd-44-2);}.tech-path-14{fill:url(#tech-grd-365-4);}.tech-path-15{fill:url(#tech-grd-44-3);}.tech-path-16{fill:url(#tech-grd-365-5);}.tech-path-17{fill:url(#tech-grd-44-4);}.tech-path-18{fill:url(#tech-grd-365-6);}.tech-path-19{fill:url(#tech-grd-3-2);}.tech-path-20{fill:#36399f;}.tech-path-21{fill:#212d60;}.tech-path-22{fill:#fff;}.tech-path-23{fill:#474ab6;}.tech-path-24{fill:url(#tech-grd-365-7);}.tech-path-25{fill:url(#tech-grd-365-8);}.tech-path-26{fill:#fd256f;}.tech-path-27{fill:#232f6d;}.tech-path-28{fill:url(#tech-grd-3-3);}.tech-path-29{fill:url(#tech-grd-365-9);}.tech-path-30{fill:url(#tech-grd-3-4);}.tech-path-31{fill:url(#tech-grd-227);}.tech-path-32{fill:#ff969b;}.tech-path-33{fill:url(#tech-grd-433);}.tech-path-34{fill:url(#tech-grd-436);}.tech-path-35{fill:#2a4280;}.tech-path-36{fill:#71d4ff;}.tech-path-37{fill:url(#tech-grd-436-2);}.tech-path-38{fill:url(#tech-grd-433-2);}.tech-path-39{fill:#626fa6;}.tech-path-40{fill:url(#tech-grd-365-10);}.tech-path-41{fill:url(#tech-grd-365-11);}.tech-path-42{fill:url(#tech-grd-44-5);}.tech-path-43{fill:#4a5ea5;}.tech-path-44{fill:url(#tech-grd-365-12);}.tech-path-45{fill:#3135cb;}.tech-path-46{fill:url(#tech-grd-44-6);}.tech-path-47{fill:url(#tech-grd-365-13);}.tech-path-48{fill:#dedef9;}.tech-path-49{fill:url(#tech-grd-647);}.tech-path-50{mask:url(#mask-2);}.tech-path-51{fill:url(#tech-grd-79);}.tech-path-52{fill:url(#tech-grd-93-3);}.tech-path-53{fill:url(#tech-grd-44-7);}.tech-path-54{fill:url(#tech-grd-365-14);}.tech-path-55{fill:url(#tech-grd-44-8);}.tech-path-56{fill:url(#tech-grd-365-15);}.tech-path-57{fill:url(#tech-grd-44-9);}.tech-path-58{fill:url(#tech-grd-365-16);}.tech-path-59{fill:url(#tech-grd-44-10);}.tech-path-60{fill:url(#tech-grd-365-17);}.tech-path-61{fill:url(#tech-grd-93-4);}.tech-path-62{fill:url(#tech-grd-365-18);}.tech-path-63{fill:url(#tech-grd-93-5);}.tech-path-64{fill:url(#tech-grd-365-19);}.tech-path-65{fill:url(#tech-grd-104);}.tech-path-66{fill:url(#tech-grd-365-20);}.tech-path-67{fill:url(#tech-grd-365-21);}.tech-path-68{fill:url(#tech-grd-365-22);}.tech-path-69{fill:url(#tech-grd-365-23);}.tech-path-70{fill:url(#tech-grd-365-24);}.tech-path-71{fill:url(#tech-grd-3-5);}.tech-path-72{fill:url(#tech-grd-22);}.tech-path-73{fill:url(#tech-grd-22-2);}.tech-path-74{fill:url(#tech-grd-365-25);}.tech-path-75{fill:url(#tech-grd-365-26);}.tech-path-76{fill:url(#tech-grd-365-27);}.tech-path-77{fill:url(#tech-grd-365-28);}.tech-path-78{filter:url(#luminosity-noclip);}</style>
        <filter id="luminosity-noclip" x="169.6" y="-8360.57" width="84.15" height="32766" filterUnits="userSpaceOnUse" color-interpolation-filters="sRGB"><feFlood flood-color="#fff" result="bg"/><feBlend in="SourceGraphic" in2="bg"/></filter><mask id="mask" x="169.6" y="-8360.57" width="84.15" height="32766" maskUnits="userSpaceOnUse"><g class="tech-path-78"/></mask>
        <linearGradient id="tech-grd-4" x1="211.68" y1="-15.08" x2="211.68" y2="156" gradientUnits="userSpaceOnUse"><stop offset="0"/><stop offset="0.09" stop-color="#070707"/><stop offset="0.22" stop-color="#1b1b1b"/><stop offset="0.37" stop-color="#3b3b3b"/><stop offset="0.54" stop-color="#686868"/><stop offset="0.73" stop-color="#a2a2a2"/><stop offset="0.94" stop-color="#e7e7e7"/><stop offset="1" stop-color="#fff"/></linearGradient>
        <linearGradient id="tech-grd-3" x1="85.35" y1="295.11" x2="119.89" y2="295.11" gradientTransform="translate(1.5)" gradientUnits="userSpaceOnUse"><stop offset="0.29" stop-color="#eaeaf9"/><stop offset="0.39" stop-color="#e3e3f7"/><stop offset="0.53" stop-color="#d0d0f2"/><stop offset="0.63" stop-color="#bebeed"/></linearGradient>
        <linearGradient id="tech-grd-93" x1="264.89" y1="38.99" x2="272.03" y2="38.99" gradientUnits="userSpaceOnUse"><stop offset="0.36" stop-color="#e4e1f9"/><stop offset="0.38" stop-color="#dad8f6"/><stop offset="0.46" stop-color="#bebeed"/></linearGradient>
        <linearGradient id="tech-grd-365" x1="2312.8" y1="18.4" x2="2348.88" y2="18.4" gradientTransform="matrix(-1, 0, 0, 1, 2594.14, 0)" gradientUnits="userSpaceOnUse"><stop offset="0" stop-color="#ffd33f"/><stop offset="1" stop-color="#ff7364"/></linearGradient>
        <linearGradient id="tech-grd-93-2" x1="259.29" y1="56.33" x2="261.22" y2="56.33" xlink:href="#tech-grd-93"/>
        <linearGradient id="tech-grd-365-2" x1="2330.44" y1="50.75" x2="2340.21" y2="50.75" xlink:href="#tech-grd-365"/>
        <linearGradient id="tech-grd-44" x1="2350.12" y1="45.78" x2="2364.65" y2="45.78" gradientTransform="matrix(-1, 0, 0, 1, 2594.14, 0)" gradientUnits="userSpaceOnUse"><stop offset="0" stop-color="#eaeaf9"/><stop offset="1" stop-color="#bebeed"/></linearGradient>
        <linearGradient id="tech-grd-365-3" x1="2349.89" y1="40.79" x2="2364.42" y2="40.79" xlink:href="#tech-grd-365"/>
        <linearGradient id="tech-grd-44-2" x1="75.99" y1="28.13" x2="112.07" y2="28.13" gradientTransform="translate(58)" xlink:href="#tech-grd-44"/>
        <linearGradient id="tech-grd-365-4" x1="75.41" y1="15.74" x2="111.49" y2="15.74" gradientTransform="translate(58)" xlink:href="#tech-grd-365"/>
        <linearGradient id="tech-grd-44-3" x1="98.01" y1="49.48" x2="115.91" y2="49.48" gradientTransform="translate(58)" xlink:href="#tech-grd-44"/>
        <linearGradient id="tech-grd-365-5" x1="97.72" y1="43.34" x2="115.62" y2="43.34" gradientTransform="translate(58)" xlink:href="#tech-grd-365"/>
        <linearGradient id="tech-grd-44-4" x1="127.43" y1="9.39" x2="135.84" y2="9.39" gradientTransform="translate(58)" xlink:href="#tech-grd-44"/>
        <linearGradient id="tech-grd-365-6" x1="127.3" y1="6.5" x2="135.71" y2="6.5" gradientTransform="translate(58)" xlink:href="#tech-grd-365"/>
        <linearGradient id="tech-grd-3-2" x1="282.59" y1="273.44" x2="319.11" y2="273.44" gradientTransform="translate(-2.52)" xlink:href="#tech-grd-3"/>
        <linearGradient id="tech-grd-365-7" x1="286.19" y1="266.44" x2="293.23" y2="266.44" gradientTransform="matrix(1, 0, 0, 1, 0, 0)" xlink:href="#tech-grd-365"/>
        <linearGradient id="tech-grd-365-8" x1="286.31" y1="277.79" x2="293.34" y2="277.79" gradientTransform="matrix(1, 0, 0, 1, 0, 0)" xlink:href="#tech-grd-365"/>
        <linearGradient id="tech-grd-3-3" x1="329.92" y1="244.32" x2="366.77" y2="244.32" gradientTransform="translate(-2.52)" xlink:href="#tech-grd-3"/>
        <linearGradient id="tech-grd-365-9" x1="-10960.19" y1="264.94" x2="-10960.19" y2="249" gradientTransform="translate(11296.37)" xlink:href="#tech-grd-365"/>
        <linearGradient id="tech-grd-3-4" x1="3.89" y1="269.46" x2="39.93" y2="269.46" gradientTransform="matrix(1, 0, 0, 1, 0, 0)" xlink:href="#tech-grd-3"/>
        <linearGradient id="tech-grd-227" x1="6913.28" y1="230.37" x2="6948.92" y2="230.37" gradientTransform="matrix(-1, 0, 0, 1, 6977.25, 0)" gradientUnits="userSpaceOnUse"><stop offset="0" stop-color="#ff6f1b"/><stop offset="1" stop-color="#ff3933"/></linearGradient>
        <linearGradient id="tech-grd-433" x1="6938.34" y1="231.38" x2="6954.62" y2="231.38" gradientTransform="matrix(-1, 0, 0, 1, 6977.25, 0)" gradientUnits="userSpaceOnUse"><stop offset="0.55" stop-color="#ff7364"/><stop offset="0.71" stop-color="#ff9457"/><stop offset="1" stop-color="#ffd33f"/></linearGradient>
        <linearGradient id="tech-grd-436" x1="6939.14" y1="246.33" x2="6956.37" y2="246.33" gradientTransform="matrix(-1, 0, 0, 1, 6977.25, 0)" gradientUnits="userSpaceOnUse"><stop offset="0.01" stop-color="#2234a4"/><stop offset="0.13" stop-color="#263299"/><stop offset="0.46" stop-color="#2f2d81"/><stop offset="0.75" stop-color="#342a72"/><stop offset="1" stop-color="#36296d"/></linearGradient>
        <linearGradient id="tech-grd-436-2" x1="6933.28" y1="249.26" x2="6951.58" y2="249.26" xlink:href="#tech-grd-436"/>
        <linearGradient id="tech-grd-433-2" x1="6945.29" y1="251.27" x2="6944.59" y2="232.19" xlink:href="#tech-grd-433"/>
        <linearGradient id="tech-grd-365-10" x1="62.49" y1="204.17" x2="71.31" y2="204.17" gradientTransform="matrix(1, 0, 0, 1, 0, 0)" xlink:href="#tech-grd-365"/>
        <linearGradient id="tech-grd-365-11" x1="65.91" y1="219.14" x2="78.33" y2="219.14" gradientTransform="matrix(1, 0, 0, 1, 0, 0)" xlink:href="#tech-grd-365"/>
        <linearGradient id="tech-grd-44-5" x1="325.68" y1="125.98" x2="6.74" y2="125.98" gradientTransform="matrix(1, 0, 0, 1, 0, 0)" xlink:href="#tech-grd-44"/>
        <linearGradient id="tech-grd-365-12" x1="123.05" y1="170.83" x2="281.13" y2="170.83" gradientTransform="matrix(1, 0, 0, 1, 0, 0)" xlink:href="#tech-grd-365"/>
        <linearGradient id="tech-grd-44-6" x1="211.22" y1="217.43" x2="211.22" y2="140.88" gradientTransform="matrix(1, 0, 0, 1, 0, 0)" xlink:href="#tech-grd-44"/>
        <linearGradient id="tech-grd-365-13" x1="199.4" y1="244.2" x2="229.85" y2="244.2" gradientTransform="matrix(1, 0, 0, 1, 0, 0)" xlink:href="#tech-grd-365"/>
        <linearGradient id="tech-grd-647" x1="262.47" y1="95.83" x2="157.85" y2="95.83" gradientUnits="userSpaceOnUse"><stop offset="0.21" stop-color="#eaeaf9"/><stop offset="0.27" stop-color="#dcdff6"/><stop offset="0.39" stop-color="#b8c2ef"/><stop offset="0.55" stop-color="#7e94e3"/><stop offset="0.6" stop-color="#6d86e0"/></linearGradient><filter id="luminosity-noclip-2" x="169.6" y="31.8" width="84.15" height="96.3" filterUnits="userSpaceOnUse" color-interpolation-filters="sRGB"><feFlood flood-color="#fff" result="bg"/><feBlend in="SourceGraphic" in2="bg"/></filter><mask id="mask-2" x="169.6" y="31.8" width="84.15" height="96.3" maskUnits="userSpaceOnUse"><g class="tech-path-1"><path class="tech-path-2" d="M169.6,31.8v75.4h.16a11.1,11.1,0,0,0,.35,2.19c1.22,4.51,5.18,8.87,12,12.35,16.49,8.44,43.13,8.48,59.52.1,6.68-3.43,10.58-7.73,11.78-12.19a11.48,11.48,0,0,0,.37-2.78V31.8Z"/></g></mask>
        <linearGradient id="tech-grd-79" x1="211.68" y1="-15.08" x2="211.68" y2="156" gradientUnits="userSpaceOnUse"><stop offset="0" stop-color="#ffd33f"/><stop offset="0.17" stop-color="#ffcc42"/><stop offset="0.42" stop-color="#ffb849"/><stop offset="0.72" stop-color="#ff9856"/><stop offset="1" stop-color="#ff7364"/></linearGradient>
        <linearGradient id="tech-grd-93-3" x1="169.52" y1="41.89" x2="253.79" y2="41.89" xlink:href="#tech-grd-93"/>
        <linearGradient id="tech-grd-44-7" x1="236.07" y1="99.53" x2="272.15" y2="99.53" gradientTransform="matrix(1, 0, 0, 1, 0, 0)" xlink:href="#tech-grd-44"/>
        <linearGradient id="tech-grd-365-14" x1="235.49" y1="87.15" x2="271.57" y2="87.15" gradientTransform="matrix(1, 0, 0, 1, 0, 0)" xlink:href="#tech-grd-365"/>
        <linearGradient id="tech-grd-44-8" x1="230.96" y1="67.59" x2="247.88" y2="67.59" gradientTransform="matrix(1, 0, 0, 1, 0, 0)" xlink:href="#tech-grd-44"/>
        <linearGradient id="tech-grd-365-15" x1="230.69" y1="61.79" x2="247.61" y2="61.79" gradientTransform="matrix(1, 0, 0, 1, 0, 0)" xlink:href="#tech-grd-365"/>
        <linearGradient id="tech-grd-44-9" x1="218.74" y1="99.48" x2="228.06" y2="99.48" gradientTransform="matrix(1, 0, 0, 1, 0, 0)" xlink:href="#tech-grd-44"/>
        <linearGradient id="tech-grd-365-16" x1="218.59" y1="96.28" x2="227.91" y2="96.28" gradientTransform="matrix(1, 0, 0, 1, 0, 0)" xlink:href="#tech-grd-365"/>
        <linearGradient id="tech-grd-44-10" x1="263.37" y1="66.33" x2="269.07" y2="66.33" gradientTransform="matrix(1, 0, 0, 1, 0, 0)" xlink:href="#tech-grd-44"/>
        <linearGradient id="tech-grd-365-17" x1="263.27" y1="64.37" x2="268.98" y2="64.37" gradientTransform="matrix(1, 0, 0, 1, 0, 0)" xlink:href="#tech-grd-365"/>
        <linearGradient id="tech-grd-93-4" x1="175.81" y1="100.01" x2="182.95" y2="100.01" xlink:href="#tech-grd-93"/>
        <linearGradient id="tech-grd-365-18" x1="2405.24" y1="79.42" x2="2441.32" y2="79.42" xlink:href="#tech-grd-365"/>
        <linearGradient id="tech-grd-93-5" x1="188.07" y1="70.3" x2="191.59" y2="70.3" xlink:href="#tech-grd-93"/>
        <linearGradient id="tech-grd-365-19" x1="2399.37" y1="60.13" x2="2417.16" y2="60.13" xlink:href="#tech-grd-365"/>
        <linearGradient id="tech-grd-104" x1="138.86" y1="102.4" x2="140.74" y2="102.4" gradientUnits="userSpaceOnUse"><stop offset="0" stop-color="#e4e1f9"/><stop offset="0.25" stop-color="#dad8f6"/><stop offset="1" stop-color="#bebeed"/></linearGradient>
        <linearGradient id="tech-grd-365-20" x1="2451.99" y1="96.98" x2="2461.48" y2="96.98" xlink:href="#tech-grd-365"/>
        <linearGradient id="tech-grd-365-21" x1="37.77" y1="287.38" x2="97.32" y2="287.38" gradientTransform="matrix(1, 0, 0, 1, 0, 0)" xlink:href="#tech-grd-365"/>
        <linearGradient id="tech-grd-365-22" x1="119.09" y1="294.75" x2="287.01" y2="294.75" gradientTransform="matrix(1, 0, 0, 1, 0, 0)" xlink:href="#tech-grd-365"/>
        <linearGradient id="tech-grd-365-23" x1="280.32" y1="235.87" x2="421.65" y2="235.87" gradientTransform="matrix(1, 0, 0, 1, 0, 0)" xlink:href="#tech-grd-365"/>
        <linearGradient id="tech-grd-365-24" x1="308.37" y1="284.76" x2="343.09" y2="284.76" gradientTransform="matrix(1, 0, 0, 1, 0, 0)" xlink:href="#tech-grd-365"/>
        <linearGradient id="tech-grd-3-5" x1="227.56" y1="305.6" x2="266.96" y2="305.6" gradientTransform="translate(-2.52)" xlink:href="#tech-grd-3"/>
        <linearGradient id="tech-grd-22" x1="259.81" y1="268.64" x2="230.48" y2="268.64" gradientUnits="userSpaceOnUse"><stop offset="0.29" stop-color="#eaeaf9"/><stop offset="0.34" stop-color="#e3e5f8"/><stop offset="0.41" stop-color="#d0d5f4"/><stop offset="0.49" stop-color="#b1bdee"/><stop offset="0.58" stop-color="#879ae5"/><stop offset="0.63" stop-color="#6d86e0"/></linearGradient>
        <linearGradient id="tech-grd-22-2" x1="119.26" y1="282.72" x2="95.78" y2="282.72" xlink:href="#tech-grd-22"/>
        <linearGradient id="tech-grd-365-25" x1="232.09" y1="298.04" x2="232.09" y2="322.23" gradientTransform="matrix(1, 0, 0, 1, 0, 0)" xlink:href="#tech-grd-365"/>
        <linearGradient id="tech-grd-365-26" x1="234.71" y1="298.04" x2="234.71" y2="322.23" gradientTransform="matrix(1, 0, 0, 1, 0, 0)" xlink:href="#tech-grd-365"/>
        <linearGradient id="tech-grd-365-27" x1="237.4" y1="298.04" x2="237.4" y2="322.23" gradientTransform="matrix(1, 0, 0, 1, 0, 0)" xlink:href="#tech-grd-365"/>
        <linearGradient id="tech-grd-365-28" x1="100.93" y1="286.12" x2="112.35" y2="286.12" gradientTransform="matrix(1, 0, 0, 1, 0, 0)" xlink:href="#tech-grd-365"/>
    </defs>
    <title>Tech Stack</title>
    <g><g>
        <path class="tech-path-3" d="M128.38,292.41l-14.06-8.21a4.47,4.47,0,0,0-4.5,0l-18,10.45,15.84,9.45h6.8l14-8.65A1.77,1.77,0,0,0,128.38,292.41Z"/>
        <path class="tech-path-4" d="M90.84,286.11v8.26a1.18,1.18,0,0,0,.6,1l14,8.14a4.14,4.14,0,0,0,4.14,0l14-8.11a1.17,1.17,0,0,0,.57-1.07h.09v-8.26Z"/>
        <path class="tech-path-5" d="M105.53,295.19l-14-8.13a1.2,1.2,0,0,1,0-2.07l14.09-8.18a3.74,3.74,0,0,1,3.77,0l14.27,8.28a1.16,1.16,0,0,1,0,2l-14,8.1A4.09,4.09,0,0,1,105.53,295.19Z"/>
        <path class="tech-path-6" d="M278.47,47.81s-6.09,3.52-6.09,3.52a2.57,2.57,0,0,0,.9-2.22V30.56h.07l6.16-3.83v-.07s0,18.85,0,18.85A2.39,2.39,0,0,1,278.47,47.81Z"/>
        <path class="tech-path-5" d="M253.09,29.81l2.61.1,17.57.65s0,15.06,0,15.06v3.49a2.57,2.57,0,0,1-.9,2.22,1.75,1.75,0,0,1-1.88-.11L240,33.54a6.73,6.73,0,0,1-2.79-5.35V10l2.55,3.17Z"/>
        <path class="tech-path-7" d="M279.15,24a6.13,6.13,0,0,0-2.42-3.31L246.22,3a1.76,1.76,0,0,0-2.16.12s-6,3.36-5.95,3.37a1.77,1.77,0,0,1,1.87.11l3.45,2,27.06,15.69a6.24,6.24,0,0,1,2.44,3.34,6.41,6.41,0,0,1,.34,2s0,1,0,1h.07l6.16-3.83V26A6.36,6.36,0,0,0,279.15,24Z"/>
        <path class="tech-path-8" d="M240,6.57l3.45,2,27.06,15.69a6.24,6.24,0,0,1,2.44,3.34,6.41,6.41,0,0,1,.34,2v1l-17.57-.65-2.61-.1L239.75,13.18,237.2,10V8.69a2.51,2.51,0,0,1,.91-2.23A1.77,1.77,0,0,1,240,6.57Z"/>
        <path class="tech-path-9" d="M262.92,58.71l-1.65.95a.69.69,0,0,0,.24-.6V54s1.69-1,1.69-1v5.08A.67.67,0,0,1,262.92,58.71Z"/>
        <path class="tech-path-5" d="M256.05,53.84l.7,0,4.76.18v5a.69.69,0,0,1-.24.6.46.46,0,0,1-.51,0l-8.26-4.79a1.83,1.83,0,0,1-.75-1.44V48.48l.69.85Z"/>
        <path class="tech-path-7" d="M263.1,52.26a1.64,1.64,0,0,0-.65-.9l-8.26-4.79a.48.48,0,0,0-.59,0l-1.61.91a.48.48,0,0,1,.51,0l.93.54,7.33,4.24a1.72,1.72,0,0,1,.66.91,1.7,1.7,0,0,1,.09.54V54s1.69-1,1.69-1v-.19A1.52,1.52,0,0,0,263.1,52.26Z"/>
        <path class="tech-path-10" d="M252.5,47.55l.93.54,7.33,4.24a1.72,1.72,0,0,1,.66.91,1.7,1.7,0,0,1,.09.54V54l-4.76-.18-.7,0-3.61-4.51-.69-.85v-.36a.7.7,0,0,1,.24-.61A.48.48,0,0,1,252.5,47.55Z"/>
        <path class="tech-path-5" d="M243.1,52.64l-2.46,1.41a1,1,0,0,0,.37-.89V45.69s2.5-1.54,2.5-1.54,0,7.56,0,7.56A1,1,0,0,1,243.1,52.64Z"/>
        <path class="tech-path-11" d="M232.88,45.39l1.05,0,7.07.26v7.47a1,1,0,0,1-.37.89.7.7,0,0,1-.76,0L227.6,46.89a2.71,2.71,0,0,1-1.12-2.16V37.41l1,1.28Z"/>
        <path class="tech-path-7" d="M243.37,43a2.52,2.52,0,0,0-1-1.34l-12.28-7.12a.7.7,0,0,0-.87.05L226.84,36a.73.73,0,0,1,.76.05l1.39.81,10.89,6.31A2.76,2.76,0,0,1,241,45.3v.39s2.5-1.54,2.5-1.54v-.29A2.62,2.62,0,0,0,243.37,43Z"/>
        <path class="tech-path-12" d="M227.6,36l1.39.81,10.89,6.31A2.76,2.76,0,0,1,241,45.3v.39l-7.07-.26-1.05,0-5.38-6.7-1-1.28s0-.53,0-.53a1,1,0,0,1,.37-.9A.73.73,0,0,1,227.6,36Z"/>
        <path class="tech-path-5" d="M136.27,45.16l6.1,3.51a2.52,2.52,0,0,1-.91-2.22V27.9h-.07l-6.16-3.83V24s0,18.84,0,18.84A2.42,2.42,0,0,0,136.27,45.16Z"/>
        <path class="tech-path-13" d="M161.65,27.16l-2.61.09-17.57.65s0,15.07,0,15.07v3.48a2.52,2.52,0,0,0,.91,2.22,1.75,1.75,0,0,0,1.88-.1l30.51-17.69a6.73,6.73,0,0,0,2.78-5.35V7.35L175,10.53Z"/>
        <path class="tech-path-7" d="M135.59,21.32A6.22,6.22,0,0,1,138,18L168.53.32a1.74,1.74,0,0,1,2.16.11l5.94,3.37a1.76,1.76,0,0,0-1.87.12l-3.45,2L144.26,21.6A6.18,6.18,0,0,0,141.82,25a6.43,6.43,0,0,0-.35,2s0,.95,0,.95h-.07l-6.16-3.83v-.73A6.34,6.34,0,0,1,135.59,21.32Z"/>
        <path class="tech-path-14" d="M174.76,3.92l-3.45,2L144.26,21.6A6.18,6.18,0,0,0,141.82,25a6.43,6.43,0,0,0-.35,2v.95L159,27.25l2.61-.09L175,10.53l2.54-3.18s0-1.32,0-1.32a2.54,2.54,0,0,0-.92-2.23A1.76,1.76,0,0,0,174.76,3.92Z"/>
        <path class="tech-path-5" d="M157.14,57.92s3,1.75,3,1.75a1.28,1.28,0,0,1-.44-1.1v-9.2s-3.09-1.9-3.09-1.9,0,9.31,0,9.31A1.17,1.17,0,0,0,157.14,57.92Z"/>
        <path class="tech-path-15" d="M169.73,49l-1.29,0-8.72.33v9.2a1.28,1.28,0,0,0,.44,1.1.88.88,0,0,0,.94-.06l15.13-8.77a3.33,3.33,0,0,0,1.38-2.65v-9l-1.26,1.58Z"/>
        <path class="tech-path-7" d="M156.8,46.1A3.07,3.07,0,0,1,158,44.46l15.13-8.77a.85.85,0,0,1,1.07.05l2.95,1.67a.88.88,0,0,0-.93.06l-1.71,1L161.1,46.24a3.08,3.08,0,0,0-1.21,1.66,3.17,3.17,0,0,0-.17,1v.48s-3.09-1.9-3.09-1.9v-.36A3.24,3.24,0,0,1,156.8,46.1Z"/>
        <path class="tech-path-16" d="M176.23,37.47l-1.71,1L161.1,46.24a3.08,3.08,0,0,0-1.21,1.66,3.17,3.17,0,0,0-.17,1v.48l8.72-.33,1.29,0,6.62-8.25,1.26-1.58v-.65a1.26,1.26,0,0,0-.45-1.11A.88.88,0,0,0,176.23,37.47Z"/>
        <path class="tech-path-5" d="M186,13.36l1.42.82a.61.61,0,0,1-.21-.52V9.34s-1.46-.89-1.46-.89v4.37A.56.56,0,0,0,186,13.36Z"/>
        <path class="tech-path-17" d="M191.88,9.16l-.61,0-4.09.15v4.32a.61.61,0,0,0,.21.52.42.42,0,0,0,.44,0L194.94,10a1.55,1.55,0,0,0,.65-1.24V4.55l-.6.74Z"/>
        <path class="tech-path-7" d="M185.81,7.8a1.43,1.43,0,0,1,.56-.77l7.11-4.12a.42.42,0,0,1,.51,0l1.38.79a.4.4,0,0,0-.43,0l-.81.46-6.3,3.66a1.42,1.42,0,0,0-.57.78,1.5,1.5,0,0,0-.08.47v.22s-1.46-.89-1.46-.89V8.28A1.36,1.36,0,0,1,185.81,7.8Z"/>
        <path class="tech-path-18" d="M194.94,3.75l-.81.46-6.3,3.66a1.42,1.42,0,0,0-.57.78,1.5,1.5,0,0,0-.08.47v.22l4.09-.15.61,0L195,5.29l.6-.74V4.24a.58.58,0,0,0-.22-.52A.4.4,0,0,0,194.94,3.75Z"/>
        <path class="tech-path-3" d="M324.77,288.84l-17.44-10.16a5.54,5.54,0,0,0-5.58,0l-16.67,14.62,14,10h8.44l17.33-10.71A2.2,2.2,0,0,0,324.77,288.84Z"/>
        <path class="tech-path-19" d="M316.6,243.3H280.07V293a1.31,1.31,0,0,0,.66,1.13l15.33,8.9a4.53,4.53,0,0,0,4.53,0l15.29-8.87a1.23,1.23,0,0,0,.62-1.16Z"/>
        <path class="tech-path-5" d="M296.08,253.4l-15.33-8.89a1.31,1.31,0,0,1,0-2.27l15.42-8.94a4.08,4.08,0,0,1,4.11,0l15.62,9a1.27,1.27,0,0,1,0,2.19l-15.29,8.86A4.53,4.53,0,0,1,296.08,253.4Z"/>
        <path class="tech-path-20" d="M294.28,289.9,285,284.51a2.32,2.32,0,0,1-1.16-2V251.44l-.12-.07a.88.88,0,0,0-1.33.77v31.37a2.33,2.33,0,0,0,1.15,2l9.31,5.4a1.39,1.39,0,0,0,2-.84A1.31,1.31,0,0,1,294.28,289.9Z"/>
        <path class="tech-path-21" d="M294.89,259.52a2.86,2.86,0,0,0-1.43-2.49l-9.65-5.59V282.5a2.32,2.32,0,0,0,1.16,2l9.31,5.39a1.31,1.31,0,0,0,.57.18,1.5,1.5,0,0,0,0-.37Z"/>
        <path class="tech-path-22" d="M287.47,265.09c0-1,.72-1.46,1.61-.95V261.4c-2.26-1.29-4.08-.25-4.09,2.35l2.49,1.44A.34.34,0,0,1,287.47,265.09Z"/>
        <path class="tech-path-23" d="M287.48,265.19,285,263.75a8.35,8.35,0,0,0,1.2,4.08l1.8-1.08A3.34,3.34,0,0,1,287.48,265.19Z"/>
        <path class="tech-path-24" d="M293.23,268.53a9.19,9.19,0,0,0-4.12-7.12s0,2.73,0,2.73a3.6,3.6,0,0,1,1.66,2.84c0,1-.73,1.46-1.63.94a3.32,3.32,0,0,1-1.12-1.17l-1.8,1.08a8.45,8.45,0,0,0,2.91,3.07c2.28,1.33,4.13.27,4.13-2.35Z"/>
        <path class="tech-path-22" d="M287.59,276.43c0-1,.72-1.45,1.61-.95v-2.74c-2.25-1.29-4.08-.24-4.09,2.35l2.49,1.45Z"/>
        <path class="tech-path-23" d="M287.59,276.54l-2.49-1.45a8.43,8.43,0,0,0,1.21,4.09l1.79-1.08A3.59,3.59,0,0,1,287.59,276.54Z"/>
        <path class="tech-path-25" d="M293.34,279.87a9.11,9.11,0,0,0-4.12-7.11s0,2.72,0,2.72a3.64,3.64,0,0,1,1.66,2.84c0,1-.74,1.46-1.64.94a3.47,3.47,0,0,1-1.12-1.16l-1.79,1.08a8.51,8.51,0,0,0,2.9,3.07c2.29,1.32,4.13.27,4.13-2.36Z"/>
        <path class="tech-path-7" d="M298.19,264.64c0,.33-.24.46-.53.29a1.16,1.16,0,0,1-.52-.9c0-.33.24-.47.52-.3A1.16,1.16,0,0,1,298.19,264.64Z"/>
        <path class="tech-path-26" d="M298.19,267.79c0,.33-.24.46-.53.3a1.2,1.2,0,0,1-.52-.91c0-.33.24-.47.52-.3A1.16,1.16,0,0,1,298.19,267.79Z"/>
        <path class="tech-path-27" d="M298.19,270.94c0,.33-.24.46-.53.3a1.2,1.2,0,0,1-.52-.91c0-.33.24-.47.52-.3A1.16,1.16,0,0,1,298.19,270.94Z"/>
        <path class="tech-path-23" d="M298.19,274.09c0,.33-.24.46-.53.3a1.2,1.2,0,0,1-.52-.91c0-.33.24-.47.52-.3A1.16,1.16,0,0,1,298.19,274.09Z"/>
        <path class="tech-path-23" d="M298.19,277.24c0,.33-.24.46-.53.3a1.2,1.2,0,0,1-.52-.91c0-.33.24-.46.52-.3A1.16,1.16,0,0,1,298.19,277.24Z"/>
        <path class="tech-path-7" d="M287.67,296.77l-1.53-.89a.81.81,0,0,1-.33-.64c0-.24.15-.35.33-.25l1.53.89a.78.78,0,0,1,.33.64C288,296.76,287.86,296.87,287.67,296.77Z"/>
        <path class="tech-path-7" d="M98,296.55l-1.54-.89a.79.79,0,0,1-.33-.63c0-.25.15-.36.33-.25l1.54.89a.79.79,0,0,1,.33.63C98.31,296.54,98.16,296.66,98,296.55Z"/>
        <path class="tech-path-7" d="M118.43,296.85,120,296a.79.79,0,0,0,.33-.63c0-.24-.15-.35-.33-.25l-1.54.89a.81.81,0,0,0-.33.64C118.1,296.84,118.25,297,118.43,296.85Z"/>
        <path class="tech-path-3" d="M372.51,260l-17.6-10.26a5.59,5.59,0,0,0-5.62,0l-16.82,14.75,14.09,10.12h8.52l17.48-10.81A2.22,2.22,0,0,0,372.51,260Z"/>
        <path class="tech-path-28" d="M364.26,213.91H327.41V264a1.33,1.33,0,0,0,.65,1.15l15.48,9a4.55,4.55,0,0,0,4.57,0l15.42-8.94a1.26,1.26,0,0,0,.63-1.18h.1Z"/>
        <path class="tech-path-5" d="M343.56,224.1l-15.48-9a1.33,1.33,0,0,1,0-2.29l15.56-9a4.13,4.13,0,0,1,4.16,0L363.55,213a1.28,1.28,0,0,1,0,2.2l-15.42,8.95A4.55,4.55,0,0,1,343.56,224.1Z"/>
        <path class="tech-path-21" d="M337.15,228.12a2.34,2.34,0,0,0-1-1.87c-.54-.31-1,0-1,.74v18.42l1.94,1.09Z"/>
        <path class="tech-path-29" d="M335.21,245.41v16.31a2.37,2.37,0,0,0,1,1.87c.54.31,1,0,1-.74V246.5Z"/>
        <path class="tech-path-7" d="M336.17,268.34l-1.54-.9a.79.79,0,0,1-.33-.63c0-.24.15-.35.33-.25l1.54.89a.81.81,0,0,1,.33.64C336.5,268.33,336.35,268.44,336.17,268.34Z"/>
        <path class="tech-path-7" d="M307.72,296.9l1.54-.89a.79.79,0,0,0,.33-.63c0-.24-.15-.36-.33-.25l-1.54.89a.81.81,0,0,0-.33.63C307.39,296.9,307.54,297,307.72,296.9Z"/>
        <path class="tech-path-3" d="M53.93,266.52,34.76,255.35a6.09,6.09,0,0,0-6.12,0L4.1,269.57l21.57,12.85h8.58L54,270.66A2.42,2.42,0,0,0,53.93,266.52Z"/>
        <path class="tech-path-30" d="M48.56,256.39v12a1.71,1.71,0,0,1-.87,1.5L27.3,281.72a6,6,0,0,1-6,0L1,269.94a1.65,1.65,0,0,1-.82-1.54H0v-12Z"/>
        <path class="tech-path-5" d="M27.28,269.59l20.39-11.82a1.75,1.75,0,0,0,0-3L27.16,242.87a5.46,5.46,0,0,0-5.47,0L.93,254.9a1.69,1.69,0,0,0,0,2.91l20.32,11.78A6,6,0,0,0,27.28,269.59Z"/>
        <path class="tech-path-31" d="M52.85,240.78a3.52,3.52,0,0,1-1.74-.4l-22-12.77a1.33,1.33,0,0,1-.75-1.12,1.73,1.73,0,0,1,1-1.41l7.85-4.56a4.39,4.39,0,0,1,4-.15l22,12.76a1.32,1.32,0,0,1,.75,1.13,1.75,1.75,0,0,1-1,1.41l-7.85,4.55A4.6,4.6,0,0,1,52.85,240.78ZM51.31,240a4,4,0,0,0,3.58-.16l7.85-4.55a1.4,1.4,0,0,0,.83-1.07.93.93,0,0,0-.56-.78L41,220.71a4,4,0,0,0-3.58.16l-7.86,4.55a1.38,1.38,0,0,0-.82,1.07,1,1,0,0,0,.55.78Z"/>
        <path class="tech-path-32" d="M44.05,229.58a1.16,1.16,0,0,1,1.64,0,1.17,1.17,0,0,1,0,1.65l-1.3,1.32a1.17,1.17,0,0,1-1.65-1.65Z"/>
        <path class="tech-path-32" d="M38.4,228.1a1.16,1.16,0,0,1,1.64,0,1.17,1.17,0,0,1,0,1.65l-1.3,1.32a1.16,1.16,0,0,1-1.64,0,1.17,1.17,0,0,1,0-1.65Z"/>
        <path class="tech-path-33" d="M38.32,231.5,33.94,234c-1.25.71-2.9,2-4.43,2-1.83-.08-2.68-1.74-3.61-3.06l-3-4.3c-.9-1.27,1.19-2.47,2.08-1.22l2.25,3.18c.65.92,1.58,3.14,2.92,2.84s2.74-1.54,3.86-2.17l3.15-1.79a1.21,1.21,0,0,1,1.21,2.09Z"/>
        <path class="tech-path-34" d="M32,241.88c-3.48,1.63-6.79,3.83-10.14,5.72-2.16,1.22-.22,4.56,1.94,3.34l8.78-5c.19-.11.45-.29.7-.46,0-.16.17-.22.64-.29a1.88,1.88,0,0,0-.64.29,4.46,4.46,0,0,0,.19.79l.06.24,4.62,2.66C37.49,244.26,35.82,240.08,32,241.88Z"/>
        <path class="tech-path-35" d="M33.24,245.52a1.88,1.88,0,0,1,.64-.29C33.41,245.3,33.25,245.36,33.24,245.52Z"/>
        <path class="tech-path-21" d="M23.47,217.05a2.15,2.15,0,0,0,.83-.45c.16-.21.19-.51.37-.71.45-.48,1.34.07,1.9-.27a4.15,4.15,0,0,1,.43-.3c.55-.22,1.05.65,1.63.53a2,2,0,0,1,.47-.12.57.57,0,0,1,.35.18,2.45,2.45,0,0,1,.55.85.66.66,0,0,1,.3.27.92.92,0,0,1,.09.37,2.5,2.5,0,0,1-.35,1.28,2.09,2.09,0,0,1-.16.54,2.94,2.94,0,0,1-.86,1.12c-.15.12-.31.23-.47.34v.66a.26.26,0,0,1-.25.26.2.2,0,0,1-.15-.06,1.23,1.23,0,0,0,0-.2c0-.48-.21-.87-.47-.87s-.47.39-.47.87a1.24,1.24,0,0,0,.16.64,10.11,10.11,0,0,1-.48,1.06c-.28.47-.83.84-1.28.59a.9.9,0,0,1-.23-.18,1.9,1.9,0,0,1-.3-.36.48.48,0,0,1-.2-.15c-.09-.12-.11-.28-.19-.41-.2-.3-.67-.38-.76-.73s.07-.44,0-.65-.51-.47-.65-.78,0-.64.1-1a2.78,2.78,0,0,0-.38-1.62C22.91,217.5,23.19,217.18,23.47,217.05Z"/>
        <path class="tech-path-32" d="M25.63,223.63c.45.25,1-.12,1.28-.59a10.11,10.11,0,0,0,.48-1.06,1.24,1.24,0,0,1-.16-.64c0-.48.21-.87.47-.87s.47.39.47.87a1.23,1.23,0,0,1,0,.2.2.2,0,0,0,.15.06.26.26,0,0,0,.25-.26v-.66c.16-.11.32-.22.47-.34a2.94,2.94,0,0,0,.86-1.12v2.12a2.73,2.73,0,0,1-2.47,2.72l.06,2.67c0,.83-2,.82-2,0,0-1.09,0-2.18-.07-3.28A.9.9,0,0,0,25.63,223.63Z"/>
        <path class="tech-path-21" d="M35.85,210.81l42.8,24.81A1.92,1.92,0,0,0,81.54,234V209.46a3.57,3.57,0,0,0-1.79-3.1l-44-25.54a.55.55,0,0,0-.82.48v27.84A1.91,1.91,0,0,0,35.85,210.81Z"/>
        <polygon class="tech-path-36" points="41.55 191.42 36.52 188.51 36.52 189.03 41.55 191.95 41.55 191.42"/>
        <polygon class="tech-path-36" points="41.55 193.31 36.52 190.4 36.52 190.92 41.55 193.84 41.55 193.31"/>
        <polygon class="tech-path-36" points="36.52 185.43 36.52 185.95 38.28 186.97 38.28 186.45 36.52 185.43"/>
        <polygon class="tech-path-36" points="36.52 186.45 36.52 186.98 38.28 188 38.28 187.47 36.52 186.45"/>
        <polygon class="tech-path-36" points="36.52 193.7 36.52 194.22 38 195.08 38 194.55 36.52 193.7"/>
        <polygon class="tech-path-36" points="36.52 194.72 36.52 195.25 38 196.1 38 195.58 36.52 194.72"/>
        <polygon class="tech-path-36" points="36.52 197.8 36.52 198.33 39.93 200.31 39.93 199.78 36.52 197.8"/>
        <polygon class="tech-path-36" points="36.52 199.86 36.52 200.38 39.93 202.36 39.93 201.83 36.52 199.86"/>
        <polygon class="tech-path-36" points="36.52 200.95 36.52 201.48 37.8 202.22 37.8 201.69 36.52 200.95"/>
        <polygon class="tech-path-36" points="36.52 204.03 36.52 204.56 37.8 205.3 37.8 204.78 36.52 204.03"/>
        <polygon class="tech-path-36" points="36.52 206.09 36.52 206.61 37.8 207.35 37.8 206.83 36.52 206.09"/>
        <path class="tech-path-35" d="M38.63,248.15A1.21,1.21,0,0,1,39,248C38.71,248.07,38.61,248.05,38.63,248.15Z"/>
        <path class="tech-path-37" d="M26.52,250.86c2.34-1.38,4.66-2.88,7-4.27,1.18-.7,2.36-1.37,3.58-2,3.81-1.87,5.26,2.24,6.12,5.11.29.94.52,1.89.72,2.85l-4.73-2.73c-.12-.34-.22-.69-.34-1s-.25-.59-.27-.68A1.21,1.21,0,0,1,39,248c-.29.06-.39,0-.37.14-.34.19-.71.49-1,.65l-.12.07c-3,1.77-5.68,3.44-8.7,5.22C26.68,255.34,24.39,252.11,26.52,250.86Z"/>
        <path class="tech-path-38" d="M21.12,233.39c.18-2.94,1.23-8.21,3.82-7.46,2.36.69,4.32,1.2,5.24,3a.83.83,0,0,1,.22.2c.75,1.06,3.84,6.32,5.17,6s1.1-.63,7-4a1.2,1.2,0,0,1,1.21,2.08c-6.95,3.93-7.38,4.5-8.81,4.43s-2.08-.8-4.32-4c-.13,2.29-.31,6.57-.16,16,0,.76.31,3.32-.08,4s-.76,1.24-1.55,1.21a5.13,5.13,0,0,1-2.28-.66c-5.79-3.16-5.84-3.79-6-7.41A121.28,121.28,0,0,1,21.12,233.39Z"/>
        <polygon class="tech-path-5" points="60.36 199.76 42.62 189.48 42.62 211.43 60.36 221.71 60.36 199.76"/>
        <polygon class="tech-path-39" points="44.56 193.26 44.56 193.8 46.57 194.99 46.58 194.45 44.56 193.26"/>
        <polygon class="tech-path-39" points="44.56 194.32 44.56 194.87 46.56 196.05 46.57 195.51 44.56 194.32"/>
        <polygon class="tech-path-39" points="44.56 195.39 44.56 195.94 46.56 197.12 46.56 196.57 44.56 195.39"/>
        <polygon class="tech-path-39" points="44.56 196.46 44.56 197 49.54 199.94 49.55 199.4 44.56 196.46"/>
        <polygon class="tech-path-39" points="44.56 198.42 44.56 198.97 48.2 201.12 48.21 200.57 44.56 198.42"/>
        <polygon class="tech-path-39" points="44.56 199.49 44.56 200.04 48.2 202.18 48.2 201.64 44.56 199.49"/>
        <polygon class="tech-path-39" points="58.41 207.64 55.38 205.85 55.38 206.4 58.41 208.19 58.41 207.64"/>
        <polygon class="tech-path-39" points="44.56 200.56 44.56 201.1 48.19 203.24 48.19 202.7 44.56 200.56"/>
        <polygon class="tech-path-39" points="56.37 200.77 47.05 195.27 47.05 194.73 56.38 200.23 56.37 200.77"/>
        <polygon class="tech-path-39" points="54.03 200.46 47.04 196.33 47.04 195.79 54.03 199.91 54.03 200.46"/>
        <polygon class="tech-path-39" points="58.41 202.48 54.53 200.2 54.53 200.74 58.41 203.03 58.41 202.48"/>
        <polygon class="tech-path-39" points="58.41 203.56 47.03 196.85 47.03 197.4 58.41 204.11 58.41 203.56"/>
        <polygon class="tech-path-39" points="58.41 204.63 50.8 200.14 50.79 200.68 58.41 205.17 58.41 204.63"/>
        <polygon class="tech-path-39" points="58.41 206.59 48.68 200.85 48.68 201.4 58.41 207.14 58.41 206.59"/>
        <polygon class="tech-path-39" points="54.9 206.14 48.67 202.46 48.67 201.92 54.91 205.59 54.9 206.14"/>
        <polygon class="tech-path-39" points="58.33 209.23 48.66 203.52 48.66 202.98 58.34 208.68 58.33 209.23"/>
        <polygon class="tech-path-39" points="50.21 205.73 46.52 203.55 46.52 203.01 50.21 205.19 50.21 205.73"/>
        <polygon class="tech-path-39" points="58.41 210.01 50.7 205.47 50.69 206.01 58.41 210.56 58.41 210.01"/>
        <polygon class="tech-path-39" points="58.41 211.09 46.51 204.07 46.51 204.62 58.41 211.63 58.41 211.09"/>
        <polygon class="tech-path-39" points="55.18 210.8 46.5 205.68 46.51 205.13 55.18 210.25 55.18 210.8"/>
        <polygon class="tech-path-39" points="58.41 212.16 55.72 210.57 55.71 211.11 58.41 212.7 58.41 212.16"/>
        <polygon class="tech-path-39" points="44.56 205.05 44.56 205.6 48.17 207.73 48.18 207.19 44.56 205.05"/>
        <polygon class="tech-path-39" points="44.56 206.12 44.56 206.67 53.92 212.19 53.93 211.65 44.56 206.12"/>
        <polygon class="tech-path-39" points="58.41 214.28 54.47 211.96 54.47 212.5 58.41 214.82 58.41 214.28"/>
        <polygon class="tech-path-39" points="44.56 207.19 44.56 207.73 51.41 211.77 51.41 211.23 44.56 207.19"/>
        <polygon class="tech-path-39" points="44.56 208.25 44.56 208.8 52.78 213.65 52.78 213.1 44.56 208.25"/>
        <polygon class="tech-path-39" points="55.86 216.6 46.66 211.18 46.67 210.64 55.86 216.06 55.86 216.6"/>
        <polygon class="tech-path-39" points="58.2 219.05 46.66 212.24 46.66 211.7 58.2 218.51 58.2 219.05"/>
        <path class="tech-path-5" d="M66.37,207l.64,0,4.3.16v4.54a.64.64,0,0,1-.22.54.41.41,0,0,1-.46,0l-7.46-4.32a1.66,1.66,0,0,1-.68-1.31v-4.44l.62.78Z"/>
        <path class="tech-path-40" d="M63.17,201.28l.84.49,6.61,3.83a1.53,1.53,0,0,1,.6.82,1.69,1.69,0,0,1,.09.49v.23L67,207l-.64,0-3.26-4.06-.62-.78v-.32a.65.65,0,0,1,.22-.55A.45.45,0,0,1,63.17,201.28Z"/>
        <path class="tech-path-5" d="M71.38,223.06l.9,0,6,.22v6.38a.89.89,0,0,1-.31.77.6.6,0,0,1-.65,0l-10.5-6.09a2.3,2.3,0,0,1-1-1.84v-6.25l.88,1.09Z"/>
        <path class="tech-path-41" d="M66.87,215.07l1.19.68,9.31,5.4a2.12,2.12,0,0,1,.84,1.15,2.44,2.44,0,0,1,.12.69v.33l-6-.22-.9,0-4.59-5.72-.88-1.09v-.46a.84.84,0,0,1,.32-.76A.58.58,0,0,1,66.87,215.07Z"/>
        <path class="tech-path-21" d="M188.16,260.91,50.85,181.25a11.75,11.75,0,0,1,0-20.31l138.06-80.1a36.71,36.71,0,0,1,36.87,0l139.79,81.1a11.33,11.33,0,0,1,0,19.57l-136.86,79.4A40.37,40.37,0,0,1,188.16,260.91Z"/>
        <path class="tech-path-42" d="M50.76,171.63,189.06,91.7a37,37,0,0,1,36.95,0l140,80.93a11.14,11.14,0,0,1,4.08,4A11.28,11.28,0,0,0,366,161.18L226,80.25a37,37,0,0,0-36.95,0L50.76,160.18A11.72,11.72,0,0,0,46.39,176,11.55,11.55,0,0,1,50.76,171.63Z"/>
        <path class="tech-path-43" d="M154.72,205.19c-32.87-19.07-33-50-.37-68.95s86-18.86,118.85.21,33,50,.37,69S187.59,224.26,154.72,205.19Zm114.57-66.47c-30.7-17.81-80.5-17.9-111-.2s-30.35,46.59.35,64.41,80.5,17.9,111,.2S300,156.53,269.29,138.72Z"/>
        <path class="tech-path-44" d="M278.26,200.43a15.22,15.22,0,0,0-13.8,0c-.14.08-.23.17-.36.26-27.91,15.74-72.81,15.54-100.58-.57-28-16.24-28.14-42.59-.32-58.73,27.56-16,72.36-16,100.41-.26l.21.15c.12.07.27.12.41.19l.19.11c3.85,1.88,9.58,1.81,13.19-.28s3.73-5.41.46-7.64a.54.54,0,0,0-.12-.09c-.14-.09-.24-.19-.38-.27s-.52-.25-.78-.37c-35.67-19.91-92.41-19.79-127.34.48-35.36,20.52-35.18,54,.4,74.64,35.2,20.43,92.06,20.73,127.51.85a9,9,0,0,0,.94-.44C282.1,206.23,282.08,202.65,278.26,200.43Z"/>
        <path class="tech-path-45" d="M313.41,182.56c-7.75-4.49-7.79-11.79-.09-16.25s20.27-4.45,28,.05,7.79,11.79.09,16.25S321.16,187.06,313.41,182.56Zm27.18-15.77c-7.33-4.25-19.23-4.27-26.51,0s-7.25,11.13.08,15.39,19.23,4.27,26.51.05S347.92,171.05,340.59,166.79Z"/>
        <path class="tech-path-7" d="M342.59,165.63c-8.39-4.86-22-4.92-30.36-.14,0,0,0,0-.05,0-.9.52-.89,1.36,0,1.88a3.55,3.55,0,0,0,3.25,0l.09-.07c6.61-3.71,17.24-3.66,23.81.16s6.68,10.1.08,13.93-17.37,3.81-24,0a3.6,3.6,0,0,0-3.29,0,1,1,0,0,0,0,1.88c8.47,4.92,22.16,5,30.55.08S351,170.53,342.59,165.63Z"/>
        <path class="tech-path-46" d="M273,111.51c-.81,8.47-6.72,16.8-17.84,23.25-1.75,1-3.6,1.93-5.49,2.8-.57.26-1.17.5-1.75.74-1.4.6-2.82,1.16-4.27,1.67-.64.23-1.29.45-1.94.66-1.62.53-3.27,1-4.94,1.44-.46.12-.9.25-1.36.36-2.23.54-4.5,1-6.8,1.39l-.2,0c-2.21.36-4.45.63-6.71.85l-1.35.11q-3,.24-6,.32l-1.17,0a107.13,107.13,0,0,1-14.64-.78c-2.35-.29-4.66-.68-7-1.13l-2.1-.43c-.88-.19-1.75-.4-2.62-.62s-1.77-.46-2.65-.71c-.68-.19-1.36-.37-2-.58-1.48-.46-2.93-1-4.36-1.5-.51-.19-1-.4-1.52-.61-1.08-.43-2.15-.88-3.19-1.36-.46-.21-.92-.41-1.37-.63-1.43-.7-2.85-1.42-4.2-2.21-11.1-6.44-17.1-14.69-18.08-23.09h-.19c0,30.08,0,54.18,0,54.18.72,8.75,6.73,17.42,18.28,24.12,9.09,5.27,20.27,8.58,32,9.92,19.55,2.24,40.54-1,55.62-9.76,11.57-6.72,17.5-15.45,17.92-24.28a1.21,1.21,0,0,0,0-.19c0-.57,0-1.14,0-1.7V111.51Z"/>
        <path class="tech-path-47" d="M203.56,247.63c4.71,2.74,12.36,2.75,17,0s4.66-7.15-.06-9.88l-.1-.06,4.06-2.35.1,0c7,4,7,10.6.08,14.61s-18.21,4-25.18,0l-.1-.06,4.06-2.36Z"/>
        <path class="tech-path-22" d="M224.68,235.47l-4.06,2.36c-4.7-2.66-12.2-2.68-16.85,0l-4.14-2.35C206.52,231.49,217.72,231.49,224.68,235.47Z"/>
        <path class="tech-path-43" d="M203.75,237.8l-.08,0c-4.65,2.7-4.66,7.09,0,9.83L199.57,250c-6.87-4-6.87-10.55,0-14.55C199.62,235.45,203.75,237.8,203.75,237.8Z"/>
        <path class="tech-path-43" d="M71.5,169.55a.85.85,0,0,1-.76,0c-.21-.13-.21-.32,0-.44a.85.85,0,0,1,.76,0A.23.23,0,0,1,71.5,169.55Z"/>
        <path class="tech-path-43" d="M73.46,170.69a.83.83,0,0,1-.75,0,.23.23,0,0,1,0-.44.85.85,0,0,1,.76,0A.23.23,0,0,1,73.46,170.69Z"/>
        <path class="tech-path-43" d="M75.42,171.83a.83.83,0,0,1-.75,0,.23.23,0,0,1,0-.44.8.8,0,0,1,.75,0C75.63,171.52,75.63,171.71,75.42,171.83Z"/>
        <path class="tech-path-43" d="M77.39,173a.82.82,0,0,1-.76,0c-.21-.12-.21-.31,0-.43a.83.83,0,0,1,.75,0A.23.23,0,0,1,77.39,173Z"/>
        <path class="tech-path-43" d="M79.35,174.12a.85.85,0,0,1-.76,0,.23.23,0,0,1,0-.44.85.85,0,0,1,.76,0A.23.23,0,0,1,79.35,174.12Z"/>
        <path class="tech-path-43" d="M81.31,175.26a.83.83,0,0,1-.75,0,.23.23,0,0,1,0-.44.85.85,0,0,1,.76,0A.23.23,0,0,1,81.31,175.26Z"/>
        <path class="tech-path-43" d="M83.27,176.4a.83.83,0,0,1-.75,0,.23.23,0,0,1,0-.44.8.8,0,0,1,.75,0C83.48,176.09,83.48,176.28,83.27,176.4Z"/>
        <path class="tech-path-43" d="M85.24,177.55a.82.82,0,0,1-.76,0c-.21-.12-.21-.31,0-.43a.85.85,0,0,1,.76,0A.24.24,0,0,1,85.24,177.55Z"/>
        <path class="tech-path-43" d="M87.2,178.69a.85.85,0,0,1-.76,0,.23.23,0,0,1,0-.44.85.85,0,0,1,.76,0A.23.23,0,0,1,87.2,178.69Z"/>
        <path class="tech-path-43" d="M89.16,179.83a.83.83,0,0,1-.75,0,.23.23,0,0,1,0-.44.83.83,0,0,1,.75,0C89.37,179.52,89.37,179.71,89.16,179.83Z"/>
        <polygon class="tech-path-43" points="82.72 163.49 75.37 167.73 74.42 167.18 81.77 162.94 82.72 163.49"/>
        <polygon class="tech-path-43" points="84.56 164.56 77.22 168.81 76.27 168.26 83.62 164.01 84.56 164.56"/>
        <polygon class="tech-path-43" points="86.42 165.64 79.07 169.89 78.12 169.34 85.47 165.09 86.42 165.64"/>
        <polygon class="tech-path-43" points="94.23 163.27 80.92 170.97 79.97 170.41 93.28 162.72 94.23 163.27"/>
        <polygon class="tech-path-43" points="95 166.78 87.65 171.02 86.7 170.47 94.05 166.22 95 166.78"/>
        <polygon class="tech-path-43" points="96.84 167.85 89.5 172.1 88.55 171.55 95.9 167.3 96.84 167.85"/>
        <polygon class="tech-path-43" points="98.69 168.93 91.35 173.18 90.4 172.63 97.75 168.38 98.69 168.93"/>
        <polygon class="tech-path-43" points="97.71 153.72 82.71 162.39 83.66 162.94 98.66 154.26 97.71 153.72"/>
        <polygon class="tech-path-43" points="99.43 155.97 85.51 164.02 84.56 163.47 98.48 155.42 99.43 155.97"/>
        <polygon class="tech-path-43" points="101.43 155.86 86.41 164.54 87.36 165.09 102.38 156.41 101.43 155.86"/>
        <polygon class="tech-path-43" points="103.29 156.93 95.77 161.28 96.71 161.83 104.24 157.48 103.29 156.93"/>
        <polygon class="tech-path-43" points="106.71 158.91 94.99 165.68 95.94 166.23 107.66 159.45 106.71 158.91"/>
        <polygon class="tech-path-43" points="108.56 159.98 96.84 166.76 97.79 167.31 109.52 160.53 108.56 159.98"/>
        <polygon class="tech-path-43" points="110.42 161.05 98.69 167.83 99.64 168.38 111.38 161.6 110.42 161.05"/>
        <polygon class="tech-path-43" points="104.98 167.9 97.63 172.14 96.69 171.59 104.03 167.34 104.98 167.9"/>
        <polygon class="tech-path-43" points="112.67 162.34 104.99 166.78 105.94 167.33 113.62 162.89 112.67 162.34"/>
        <polygon class="tech-path-43" points="114.53 163.42 98.54 172.67 99.48 173.22 115.48 163.97 114.53 163.42"/>
        <polygon class="tech-path-43" points="116.39 164.49 100.39 173.75 101.33 174.3 117.34 165.04 116.39 164.49"/>
        <polygon class="tech-path-43" points="67.77 171.06 61.77 174.52 62.72 175.07 68.72 171.61 67.77 171.06"/>
        <polygon class="tech-path-43" points="69.62 172.13 63.62 175.6 64.57 176.15 70.57 172.68 69.62 172.13"/>
        <polygon class="tech-path-43" points="73.32 174.29 64.24 179.53 65.19 180.09 74.27 174.84 73.32 174.29"/>
        <polygon class="tech-path-43" points="67.65 181.52 68.59 182.07 75.69 177.96 74.75 177.41 67.65 181.52"/>
        <polygon class="tech-path-43" points="58.69 176.3 59.64 176.85 61.77 175.62 60.83 175.07 58.69 176.3"/>
        <polygon class="tech-path-43" points="60.54 177.38 61.49 177.93 63.62 176.7 62.68 176.15 60.54 177.38"/>
        <polygon class="tech-path-43" points="73.59 184.98 74.53 185.53 77.59 183.76 76.64 183.21 73.59 184.98"/>
        <polygon class="tech-path-43" points="75.44 186.05 76.38 186.6 79.44 184.84 78.49 184.28 75.44 186.05"/>
        <path class="tech-path-48" d="M254.91,83.94A72.52,72.52,0,0,0,239.5,77.4c-23.35-7-52.7-4.92-72.18,6.38-11.84,6.87-17.8,15.85-18,24.88-.17,9.37,5.89,18.78,18.24,25.94,1.35.79,2.77,1.51,4.2,2.21.45.22.91.42,1.37.63,1,.48,2.11.93,3.19,1.36.5.21,1,.42,1.52.61,1.43.54,2.88,1,4.36,1.5.67.21,1.35.39,2,.58.88.25,1.76.49,2.65.71s1.74.43,2.62.62l2.1.43c2.29.45,4.6.84,7,1.13a107.13,107.13,0,0,0,14.64.78l1.17,0q3-.07,6-.32l1.35-.11c2.26-.22,4.5-.49,6.71-.85l.2,0c2.3-.38,4.57-.85,6.8-1.39.46-.11.9-.24,1.36-.36,1.67-.44,3.32-.91,4.94-1.44.65-.21,1.3-.43,1.94-.66,1.45-.51,2.87-1.07,4.27-1.67.58-.24,1.18-.48,1.75-.74,1.89-.87,3.74-1.78,5.49-2.8,11.66-6.76,17.6-15.58,17.93-24.47C273.46,100.78,267.43,91.21,254.91,83.94Z"/>
        <path class="tech-path-49" d="M178.78,95.67c17.68-10.24,46.43-10.19,64.22.12,7.33,4.25,11.61,9.58,12.92,15.09,1.89-7.91-2.39-16.24-12.92-22.34-17.79-10.31-46.54-10.37-64.22-.12-10.39,6-14.59,14.27-12.71,22.14C167.37,105.11,171.57,99.86,178.78,95.67Z"/>
        <path class="tech-path-21" d="M179,125.65c17.79,10.31,46.55,10.37,64.22.12,7.22-4.18,11.42-9.44,12.72-14.89-1.31-5.51-5.59-10.84-12.92-15.09-17.79-10.31-46.54-10.36-64.22-.12-7.21,4.19-11.41,9.44-12.71,14.89C167.38,116.07,171.66,121.4,179,125.65Z"/>
        <g class="tech-path-50"><path class="tech-path-51" d="M169.6,31.8v75.4h.16a11.1,11.1,0,0,0,.35,2.19c1.22,4.51,5.18,8.87,12,12.35,16.49,8.44,43.13,8.48,59.52.1,6.68-3.43,10.58-7.73,11.78-12.19a11.48,11.48,0,0,0,.37-2.78V31.8Z"/></g>
        <path class="tech-path-52" d="M253.76,22.69a4,4,0,0,1-2,3.84L209,51.61a10.63,10.63,0,0,1-10.57.08L171.44,36.45A3.71,3.71,0,0,1,169.56,33s0,8.33,0,8.33a3.84,3.84,0,0,0,1.92,3.12L198.39,59.7A10.59,10.59,0,0,0,209,59.62l42.83-25.07a4,4,0,0,0,2-3.53s0-8.33,0-8.33Z"/>
        <path class="tech-path-5" d="M253.76,22.69a4,4,0,0,0-2-3.13L224.5,3.75a7.91,7.91,0,0,0-3.82-1.06l-5.9,27.17-45.22,3.26a3.72,3.72,0,0,0,1.88,3.33l26.95,15.24A10.63,10.63,0,0,0,209,51.61l42.83-25.08A4,4,0,0,0,253.76,22.69Z"/>
        <path class="tech-path-5" d="M220.68,2.69a7.89,7.89,0,0,0-4.07,1.06L171.41,30A3.71,3.71,0,0,0,169.56,33v.1l45.22-3.26Z"/>
        <path class="tech-path-7" d="M220.68,2.69a7.89,7.89,0,0,0-4.07,1.06L171.41,30A3.71,3.71,0,0,0,169.56,33v.1l45.22-3.26Z"/>
        <path class="tech-path-5" d="M238.35,116.56s6.1,3.52,6.1,3.52a2.53,2.53,0,0,1-.91-2.22V99.31h-.07l-6.16-3.82v18.77A2.4,2.4,0,0,0,238.35,116.56Z"/>
        <path class="tech-path-53" d="M263.73,98.56l-2.6.1-17.58.65s0,15.06,0,15.06v3.49a2.53,2.53,0,0,0,.91,2.22,1.75,1.75,0,0,0,1.88-.11l30.51-17.68a6.71,6.71,0,0,0,2.78-5.35V78.76l-2.54,3.17Z"/>
        <path class="tech-path-7" d="M237.67,92.73a6.22,6.22,0,0,1,2.43-3.32l30.51-17.68a1.74,1.74,0,0,1,2.16.11s6,3.36,5.94,3.37a1.74,1.74,0,0,0-1.86.12l-3.46,2L246.34,93a6.19,6.19,0,0,0-2.44,3.34,6.49,6.49,0,0,0-.35,2s0,1,0,1h-.07l-6.16-3.82v-.73A6.3,6.3,0,0,1,237.67,92.73Z"/>
        <path class="tech-path-54" d="M276.85,75.33l-3.46,2L246.34,93a6.19,6.19,0,0,0-2.44,3.34,6.49,6.49,0,0,0-.35,2v1l17.58-.65,2.6-.1,13.35-16.63,2.54-3.17s0-1.32,0-1.32a2.5,2.5,0,0,0-.92-2.23A1.74,1.74,0,0,0,276.85,75.33Z"/>
        <path class="tech-path-5" d="M232,75.58l2.85,1.65a1.19,1.19,0,0,1-.42-1v-8.7s-2.92-1.8-2.92-1.8V74.5A1.13,1.13,0,0,0,232,75.58Z"/>
        <path class="tech-path-55" d="M243.93,67.14l-1.22,0-8.25.31v8.7a1.19,1.19,0,0,0,.42,1,.83.83,0,0,0,.89,0l14.31-8.3a3.13,3.13,0,0,0,1.3-2.5V57.85l-1.19,1.49Z"/>
        <path class="tech-path-7" d="M231.71,64.4a2.86,2.86,0,0,1,1.14-1.55l14.3-8.3a.83.83,0,0,1,1,.05L251,56.18a.84.84,0,0,0-.88.06l-1.62.94-12.69,7.35a2.91,2.91,0,0,0-1.14,1.57,2.83,2.83,0,0,0-.17.94v.45s-2.92-1.8-2.92-1.8v-.34A2.89,2.89,0,0,1,231.71,64.4Z"/>
        <path class="tech-path-56" d="M250.08,56.24l-1.62.94-12.69,7.35a2.91,2.91,0,0,0-1.14,1.57,2.83,2.83,0,0,0-.17.94v.45l8.25-.31,1.22,0,6.26-7.8,1.19-1.49s0-.62,0-.62a1.21,1.21,0,0,0-.43-1A.84.84,0,0,0,250.08,56.24Z"/>
        <path class="tech-path-5" d="M219.33,103.88l1.57.91a.65.65,0,0,1-.23-.57v-4.8s-1.61-1-1.61-1v4.85A.61.61,0,0,0,219.33,103.88Z"/>
        <path class="tech-path-57" d="M225.88,99.23l-.67,0-4.54.16v4.8a.65.65,0,0,0,.23.57.46.46,0,0,0,.49,0l7.88-4.57a1.73,1.73,0,0,0,.72-1.38v-4.7l-.66.82Z"/>
        <path class="tech-path-7" d="M219.15,97.72a1.56,1.56,0,0,1,.63-.85l7.88-4.57a.45.45,0,0,1,.56,0l1.53.87a.45.45,0,0,0-.48,0l-.89.51-7,4.06a1.55,1.55,0,0,0-.63.86,1.58,1.58,0,0,0-.09.52v.24s-1.61-1-1.61-1v-.19A1.69,1.69,0,0,1,219.15,97.72Z"/>
        <path class="tech-path-58" d="M229.27,93.23l-.89.51-7,4.06a1.55,1.55,0,0,0-.63.86,1.58,1.58,0,0,0-.09.52v.24l4.54-.16.67,0,3.45-4.3.66-.82v-.34a.63.63,0,0,0-.24-.57A.45.45,0,0,0,229.27,93.23Z"/>
        <path class="tech-path-5" d="M263.73,69l1,.56a.41.41,0,0,1-.14-.36V66.29l-1-.6v3A.38.38,0,0,0,263.73,69Z"/>
        <path class="tech-path-59" d="M267.74,66.17l-.41,0-2.78.1v2.93a.41.41,0,0,0,.14.36.28.28,0,0,0,.3,0l4.82-2.8a1,1,0,0,0,.45-.84V63l-.41.5Z"/>
        <path class="tech-path-7" d="M263.62,65.25a1,1,0,0,1,.38-.52l4.83-2.8a.27.27,0,0,1,.34,0l.94.53a.26.26,0,0,0-.29,0l-.55.31L265,65.29a1,1,0,0,0-.39.53,1.25,1.25,0,0,0-.05.32v.15l-1-.6v-.12A1,1,0,0,1,263.62,65.25Z"/>
        <path class="tech-path-60" d="M269.82,62.5l-.55.31L265,65.29a1,1,0,0,0-.39.53,1.25,1.25,0,0,0-.05.32v.15l2.78-.1.41,0,2.11-2.63.41-.5v-.21a.4.4,0,0,0-.15-.35A.26.26,0,0,0,269.82,62.5Z"/>
        <path class="tech-path-61" d="M186,108.83s-6.1,3.51-6.1,3.51a2.52,2.52,0,0,0,.91-2.22V91.58h.07l6.16-3.83v18.77A2.42,2.42,0,0,1,186,108.83Z"/>
        <path class="tech-path-5" d="M160.66,90.83l2.6.1,17.58.65s0,15.06,0,15.06v3.48a2.52,2.52,0,0,1-.91,2.22,1.73,1.73,0,0,1-1.88-.1L147.55,94.55a6.69,6.69,0,0,1-2.78-5.34V71l2.54,3.17Z"/>
        <path class="tech-path-7" d="M186.72,85a6.19,6.19,0,0,0-2.43-3.31L153.78,64a1.75,1.75,0,0,0-2.16.12s-6,3.36-5.94,3.37a1.73,1.73,0,0,1,1.87.11l3.45,2,27.05,15.69a6.15,6.15,0,0,1,2.44,3.34,6.43,6.43,0,0,1,.35,2s0,1,0,1h.07l6.16-3.83V87A6.34,6.34,0,0,0,186.72,85Z"/>
        <path class="tech-path-62" d="M147.55,67.59l3.45,2,27.05,15.69a6.15,6.15,0,0,1,2.44,3.34,6.43,6.43,0,0,1,.35,2v1l-17.58-.65-2.6-.1L147.31,74.2,144.77,71s0-1.32,0-1.32a2.49,2.49,0,0,1,.92-2.23A1.73,1.73,0,0,1,147.55,67.59Z"/>
        <path class="tech-path-63" d="M193.36,74.63s-3,1.73-3,1.73a1.21,1.21,0,0,0,.45-1.09V66.12s3.07-1.88,3.07-1.88,0,9.25,0,9.25A1.19,1.19,0,0,1,193.36,74.63Z"/>
        <path class="tech-path-5" d="M180.84,65.75l1.29,0,8.67.32v9.15a1.21,1.21,0,0,1-.45,1.09.84.84,0,0,1-.92,0l-15.05-8.72A3.3,3.3,0,0,1,173,65V56l1.25,1.56Z"/>
        <path class="tech-path-7" d="M193.7,62.88a3.11,3.11,0,0,0-1.2-1.64l-15.05-8.72a.85.85,0,0,0-1.06.06s-2.94,1.65-2.93,1.66a.86.86,0,0,1,.92,0l1.7,1L189.42,63a3,3,0,0,1,1.2,1.64,3.19,3.19,0,0,1,.18,1v.47s3.07-1.88,3.07-1.88v-.36A3.18,3.18,0,0,0,193.7,62.88Z"/>
        <path class="tech-path-64" d="M174.38,54.29l1.7,1L189.42,63a3,3,0,0,1,1.2,1.64,3.19,3.19,0,0,1,.18,1v.47l-8.67-.32-1.29,0-6.58-8.2L173,56s0-.65,0-.65a1.23,1.23,0,0,1,.46-1.1A.86.86,0,0,1,174.38,54.29Z"/>
        <path class="tech-path-65" d="M141.39,104.71l-1.6.93a.67.67,0,0,0,.24-.59v-4.87s1.63-1,1.63-1,0,4.94,0,4.94A.62.62,0,0,1,141.39,104.71Z"/>
        <path class="tech-path-5" d="M134.72,100l.68,0,4.62.17v4.87a.67.67,0,0,1-.24.59.48.48,0,0,1-.5,0l-8-4.65a1.76,1.76,0,0,1-.73-1.41V94.78l.67.83Z"/>
        <path class="tech-path-7" d="M141.57,98.45a1.55,1.55,0,0,0-.64-.87l-8-4.65a.45.45,0,0,0-.57,0l-1.56.88a.46.46,0,0,1,.49,0l.91.53,7.11,4.12a1.79,1.79,0,0,1,.73,1.41v.25s1.63-1,1.63-1V99A1.64,1.64,0,0,0,141.57,98.45Z"/>
        <path class="tech-path-66" d="M131.27,93.87l.91.53,7.11,4.12a1.79,1.79,0,0,1,.73,1.41v.25L135.4,100l-.68,0-3.51-4.37-.67-.83v-.35a.67.67,0,0,1,.24-.59A.46.46,0,0,1,131.27,93.87Z"/>
        <path class="tech-path-7" d="M37.1,274.32l1.54-.89a.79.79,0,0,0,.33-.63c0-.24-.15-.36-.33-.25l-1.54.89a.79.79,0,0,0-.33.63C36.77,274.32,36.92,274.43,37.1,274.32Z"/>
        <path class="tech-path-67" d="M86.93,301.52a2.86,2.86,0,0,1-1.39-.37L37.77,273.62l.21-.37,47.77,27.52a2.34,2.34,0,0,0,2.37,0l9-5.28.22.37-9,5.28A2.73,2.73,0,0,1,86.93,301.52Z"/>
        <path class="tech-path-68" d="M258.36,311.8a4.5,4.5,0,0,1-2.26-.6l-56.71-32.57a3.73,3.73,0,0,0-3.74,0L143.9,308.86a3.34,3.34,0,0,1-3.39,0l-21.42-12.71.22-.37,21.42,12.71a2.91,2.91,0,0,0,3,0l51.75-30.22a4.17,4.17,0,0,1,4.17,0l56.71,32.58a4.14,4.14,0,0,0,4.09,0l26.4-15.14.21.38-26.4,15.13A4.54,4.54,0,0,1,258.36,311.8Z"/>
        <path class="tech-path-69" d="M369.52,273.91a4.16,4.16,0,0,1-2-.53l-10.89-6.13.21-.38L367.7,273a3.72,3.72,0,0,0,3.68,0L420,244.71a2.48,2.48,0,0,0,0-4.28l-71.94-41.66a3.83,3.83,0,0,0-3.83,0l-51.76,29.92a1.94,1.94,0,0,1-2,0l-9-5.67a.47.47,0,0,0-.71.4v7.49h-.43v-7.49a.88.88,0,0,1,.46-.78.85.85,0,0,1,.91,0l9,5.66a1.52,1.52,0,0,0,1.58,0L344,198.4a4.25,4.25,0,0,1,4.25,0l71.95,41.66a2.91,2.91,0,0,1,0,5l-48.62,28.27A4.13,4.13,0,0,1,369.52,273.91Z"/>
        <path class="tech-path-70" d="M318.28,302.1a2.85,2.85,0,0,1-1.59-.48l-8.32-5.42.24-.36,8.31,5.42a2.46,2.46,0,0,0,2.6.07l22.87-13.26a.55.55,0,0,0,.27-.49.54.54,0,0,0-.28-.48l-18.83-10.81a1.13,1.13,0,0,1-.57-1,1.11,1.11,0,0,1,.57-1l11.94-6.9.21.37-11.94,6.9a.72.72,0,0,0,0,1.23l18.84,10.81a1,1,0,0,1,0,1.72L319.74,301.7A2.87,2.87,0,0,1,318.28,302.1Z"/>
        <path class="tech-path-3" d="M273.26,322.21l-18.82-11a6,6,0,0,0-6,0l-18,15.76,15.06,10.83h8.35l19.45-11.56A2.37,2.37,0,0,0,273.26,322.21Z"/>
        <path class="tech-path-71" d="M264.44,273.08H225.05v53.56a1.39,1.39,0,0,0,.7,1.22l16.54,9.59a4.86,4.86,0,0,0,4.89,0l16.49-9.56a1.32,1.32,0,0,0,.67-1.25Z"/>
        <path class="tech-path-5" d="M242.31,284l-16.54-9.59a1.41,1.41,0,0,1,0-2.44l16.63-9.64a4.43,4.43,0,0,1,4.45,0l16.84,9.76a1.37,1.37,0,0,1,0,2.36L247.2,284A4.86,4.86,0,0,1,242.31,284Z"/>
        <path class="tech-path-21" d="M243.12,280.35l-11.93-6.92a1,1,0,0,1,0-1.76l12-6.95a3.23,3.23,0,0,1,3.21,0l12.14,7a1,1,0,0,1,0,1.7l-11.89,6.89A3.51,3.51,0,0,1,243.12,280.35Z"/>
        <path class="tech-path-72" d="M231.19,272.6l12-6.94a3.23,3.23,0,0,1,3.21,0l12.16,7a1,1,0,0,1,.35.35,1,1,0,0,0-.35-1.35l-12.16-7a3.23,3.23,0,0,0-3.21,0l-12,6.94a1,1,0,0,0-.38,1.37A1,1,0,0,1,231.19,272.6Z"/>
        <path class="tech-path-21" d="M105.9,292.1l-9.55-5.54a.82.82,0,0,1,0-1.41l9.6-5.56a2.55,2.55,0,0,1,2.56,0l9.73,5.63a.79.79,0,0,1,0,1.36l-9.52,5.52A2.84,2.84,0,0,1,105.9,292.1Z"/>
        <path class="tech-path-73" d="M96.34,285.89l9.62-5.55a2.57,2.57,0,0,1,2.57,0l9.74,5.62a.83.83,0,0,1,.28.28.77.77,0,0,0-.28-1.07l-9.74-5.63a2.61,2.61,0,0,0-2.57,0l-9.62,5.56a.8.8,0,0,0-.3,1.1A.81.81,0,0,1,96.34,285.89Z"/>
        <path class="tech-path-20" d="M240.43,324.64l-9.85-5.71a2.46,2.46,0,0,1-1.23-2.13V283.91l-.12-.07a.94.94,0,0,0-1.42.82v33.21A2.46,2.46,0,0,0,229,320l9.85,5.71a1.47,1.47,0,0,0,2.15-.89A1.38,1.38,0,0,1,240.43,324.64Z"/>
        <path class="tech-path-21" d="M241.09,292.47a3,3,0,0,0-1.52-2.63l-10.22-5.93V316.8a2.46,2.46,0,0,0,1.23,2.13l9.85,5.71a1.38,1.38,0,0,0,.61.18,1.52,1.52,0,0,0,.05-.38Z"/>
        <path class="tech-path-74" d="M232.09,316a1.55,1.55,0,0,1-.65-1.24V288.62c0-.47.29-.69.65-.48a1.55,1.55,0,0,1,.64,1.23v26.16C232.73,316,232.44,316.22,232.09,316Z"/>
        <path class="tech-path-75" d="M234.71,317.46a1.53,1.53,0,0,1-.63-1.2V299.08c0-.46.29-.68.63-.48a1.53,1.53,0,0,1,.63,1.2V317C235.34,317.45,235.05,317.66,234.71,317.46Z"/>
        <path class="tech-path-76" d="M237.4,293.26c-.34-.2-.62,0-.62.47v24.18a1.52,1.52,0,0,0,.62,1.2c.35.2.63,0,.63-.48V294.46A1.47,1.47,0,0,0,237.4,293.26Z"/>
        <path class="tech-path-23" d="M103.22,288.6c-2.37-1.37-2.39-3.61,0-5a9.49,9.49,0,0,1,8.59,0c2.38,1.38,2.39,3.61,0,5A9.46,9.46,0,0,1,103.22,288.6Zm8.28-4.79a8.82,8.82,0,0,0-8,0c-2.21,1.28-2.2,3.36,0,4.65a8.86,8.86,0,0,0,8,0C113.73,287.18,113.72,285.09,111.5,283.81Z"/>
        <path class="tech-path-23" d="M104.87,287.65c-1.46-.85-1.46-2.22,0-3.06a5.79,5.79,0,0,1,5.27,0c1.46.84,1.47,2.22,0,3.06A5.85,5.85,0,0,1,104.87,287.65Zm5.12-3a5.52,5.52,0,0,0-5,0c-1.37.8-1.37,2.09,0,2.9a5.49,5.49,0,0,0,5,0C111.38,286.78,111.37,285.48,110,284.68Z"/>
        <path class="tech-path-77" d="M112.15,288.26a1.1,1.1,0,0,0-1,0,8.1,8.1,0,0,1-7.29,0c-2-1.18-2-3.08,0-4.24a8.07,8.07,0,0,1,7.26,0,1.12,1.12,0,0,0,1,0c.26-.15.27-.39,0-.55,0,0-.07-.05-.09-.05a10.27,10.27,0,0,0-9.2,0c-2.55,1.48-2.54,3.9,0,5.39a10.26,10.26,0,0,0,9.21.06l.07,0A.31.31,0,0,0,112.15,288.26Z"/>
        <path class="tech-path-7" d="M110.36,284.46a6.34,6.34,0,0,0-5.71,0c-.18.1-.18.26,0,.36a.66.66,0,0,0,.61,0,5,5,0,0,1,4.5,0c1.25.72,1.26,1.9,0,2.62a5,5,0,0,1-4.52,0,.71.71,0,0,0-.62,0,.19.19,0,0,0,0,.36,6.33,6.33,0,0,0,5.75,0C112,286.88,112,285.38,110.36,284.46Z"/>
    </g></g>
</svg>
